<svg xmlns="http://www.w3.org/2000/svg" xmlns:xlink="http://www.w3.org/1999/xlink" viewBox="0 0 500 500"><defs><clipPath id="clip-path--inject-207"><rect x="64.79" y="136.63" width="96.28" height="249.59" style="fill:none"></rect></clipPath><clipPath id="clip-path-2--inject-207"><path d="M268.13,230.16h-175V385.75H227.76a.81.81,0,0,0,.45.29h.17a1.14,1.14,0,0,0,.58.38l-.11.89,1.26,4.64,2.12-4h0l0-.22.26,0a4.06,4.06,0,0,0,2.78,1,.44.44,0,0,0,.1.15c1.06.84,6.55,1.68,8.24-.43a3.25,3.25,0,0,0,.55-1,20,20,0,0,0,4.68-1.59h19.27Z" style="fill:none"></path></clipPath><clipPath id="clip-path-3--inject-207"><rect x="172.39" y="182.83" width="240.86" height="203.04" style="fill:none"></rect></clipPath></defs><g id="background-simple--inject-207"><path d="M454.38,244.31c2.17-28.81-4.54-58.91-13.52-85.74C427.52,118.72,401.62,77.85,358,68.42c-25.15-5.44-50.74.39-72.3,14-20.74,13.11-36.92,30-62.4,33.32-25.79,3.32-52.25,2-78.18,2-66.64,0-120.73,70-107.21,143s77.27,123.5,131.36,123.5c48.6,0,88.59-29.16,134.76-37,22.89-3.88,45.88.72,68.53-5.1,26.33-6.76,51.1-22.9,65.68-46.26C448.19,279.91,453,262.36,454.38,244.31Z" style="fill:#64398B"></path><path d="M454.38,244.31c2.17-28.81-4.54-58.91-13.52-85.74C427.52,118.72,401.62,77.85,358,68.42c-25.15-5.44-50.74.39-72.3,14-20.74,13.11-36.92,30-62.4,33.32-25.79,3.32-52.25,2-78.18,2-66.64,0-120.73,70-107.21,143s77.27,123.5,131.36,123.5c48.6,0,88.59-29.16,134.76-37,22.89-3.88,45.88.72,68.53-5.1,26.33-6.76,51.1-22.9,65.68-46.26C448.19,279.91,453,262.36,454.38,244.31Z" style="fill:#fff;opacity:0.7000000000000001"></path></g><g id="Pictures--inject-207"><rect x="177.34" y="136.92" width="71.05" height="98.5" style="fill:none;stroke:#263238;stroke-miterlimit:10;stroke-width:1.2110298643835282px"></rect><rect x="186.07" y="149.03" width="53.58" height="74.28" style="fill:none;stroke:#263238;stroke-miterlimit:10;stroke-width:1.2110298643835282px"></rect><rect x="329.12" y="187.78" width="49.5" height="68.63" style="fill:none;stroke:#263238;stroke-miterlimit:10;stroke-width:1.2110298643835282px"></rect><rect x="335.21" y="196.22" width="37.33" height="51.75" style="fill:none;stroke:#263238;stroke-miterlimit:10;stroke-width:1.2110298643835282px"></rect></g><g id="Plants--inject-207"><path d="M442.14,317.73s.94-3.43,1-3.66c.36-2.6-.47-7.85-3.12-9.13a3.47,3.47,0,0,0-4.74,2.1c-.71,1.95.19,4.35,1.25,6C437.76,315,442.14,317.73,442.14,317.73Z" style="fill:#263238"></path><path d="M389.83,316.6c2.12.92,7.29.8,7.29.8s-1.11-3.38-1.21-3.59c-1.13-2.37-4.72-6.29-7.64-5.89a3.48,3.48,0,0,0-2.8,4.36C386,314.31,388,315.81,389.83,316.6Z" style="fill:#263238"></path><path d="M397.86,306.11l.05,0c-.12.83-.23,1.73-.34,2.7-.17,1.81-.36,3.85-.41,6.09a61.6,61.6,0,0,0,.17,7.22,45.72,45.72,0,0,0,1.34,8l0,.09c-.47-.73-1.83-2.72-1.95-2.86-1.72-2-6.22-4.83-8.93-3.67a3.49,3.49,0,0,0-1.55,4.95c1,1.82,3.4,2.72,5.35,3,2.19.32,6.81-1,7.17-1.13a62.66,62.66,0,0,0,2.8,7.74q1,2.21,2,4.39c-.42-.62-.8-1.16-.87-1.24-1.72-2-6.21-4.82-8.92-3.67a3.49,3.49,0,0,0-1.55,5c1,1.82,3.4,2.72,5.35,3s5.93-.77,7-1.07c.28.56.55,1.12.82,1.67,1.34,2.66,2.69,5.31,3.93,7.95.43.93.83,1.86,1.23,2.8-.37-.55-.69-1-.75-1.07-1.72-2-6.22-4.83-8.93-3.68a3.49,3.49,0,0,0-1.54,5c1,1.82,3.4,2.72,5.34,3s5.54-.68,6.79-1c.38,1,.76,1.93,1.09,2.88.2.66.45,1.28.62,1.95s.37,1.31.55,2c.3,1.25.62,2.55.88,3.79.19.85.36,1.68.53,2.5-.43-.93-1.3-2.73-1.39-2.88-1.4-2.22-5.41-5.7-8.27-5a3.49,3.49,0,0,0-2.27,4.67c.71,1.95,2.94,3.2,4.82,3.78,2.07.63,6.65,0,7.23,0,.27,1.36.52,2.7.74,4,.7,4,1.16,7.35,1.46,9.87h2c-.36-2.56-.9-6.06-1.72-10.19-.27-1.39-.59-2.87-.94-4.39a39.19,39.19,0,0,0,4-1.89c1.51,1.63,5.37,3.54,5.87,3.78-.52,1.3-1.05,2.55-1.56,3.72-1.59,3.66-3.06,6.71-4.19,9h2.16c1-2.2,2.3-5,3.64-8.29.54-1.31,1.09-2.72,1.64-4.17.55.11,5.09,1,7.2.56,1.92-.44,4.24-1.52,5.1-3.42a3.47,3.47,0,0,0-1.93-4.81c-2.79-.94-7.05,2.23-8.61,4.35-.1.12-.94,1.59-1.46,2.52.22-.59.44-1.17.66-1.79.45-1.21.86-2.44,1.3-3.75.19-.65.39-1.3.58-1.95s.35-1.36.53-2c.38-1.6.69-3.23,1-4.89,1.06.39,4.87,1.71,6.83,1.58s4.42-.86,5.56-2.61a3.49,3.49,0,0,0-1.17-5.05c-2.62-1.35-7.32,1.14-9.18,3-.12.11-1.31,1.59-1.94,2.42.15-1,.32-2,.44-3,.36-2.92.64-5.89.93-8.85.09-.91.18-1.81.28-2.71.38.14,4.86,1.81,7.07,1.65,2-.13,4.41-.85,5.55-2.6a3.49,3.49,0,0,0-1.17-5.05c-2.62-1.35-7.31,1.14-9.18,3-.14.14-1.85,2.28-2.25,2.84.21-2,.43-4,.74-5.91a59.55,59.55,0,0,1,1.7-7.78c.17.06,4.84,1.83,7.1,1.67,2-.14,4.42-.86,5.56-2.6a3.5,3.5,0,0,0-1.17-5.06c-2.62-1.35-7.32,1.14-9.18,3-.12.12-1.43,1.74-2,2.53l-.15-.08a45.14,45.14,0,0,1,3.09-7.38c.67-1.31,1.39-2.53,2.11-3.7.84.42,4.68,2.29,6.73,2.37s4.48-.37,5.8-2a3.48,3.48,0,0,0-.61-5.15c-2.45-1.63-7.39.33-9.45,2-.11.09-1.15,1.12-1.89,1.88.33-.52.67-1.06,1-1.56,1.23-1.85,2.47-3.47,3.59-4.9.63-.81,1.23-1.53,1.79-2.19,1,0,5.2-.15,7-1s3.81-2.4,4.24-4.43a3.5,3.5,0,0,0-2.92-4.3c-2.93-.31-6.41,3.7-7.48,6.11-.09.2-1.16,3.62-1.11,3.62H449c-.55.63-1.14,1.31-1.76,2.07-1.15,1.4-2.43,3-3.71,4.84a62.26,62.26,0,0,0-3.84,6.12,44.88,44.88,0,0,0-3.28,7.39l0,.09c0-.86,0-3.28-.05-3.46-.33-2.61-2.52-7.45-5.42-8a3.49,3.49,0,0,0-4,3.28c-.17,2.07,1.33,4.15,2.8,5.46,1.65,1.47,6.24,2.9,6.61,3a61.08,61.08,0,0,0-1.94,8c-.28,1.58-.52,3.17-.73,4.78,0-.75,0-1.42,0-1.51-.34-2.61-2.53-7.45-5.42-8a3.49,3.49,0,0,0-4,3.28c-.17,2.07,1.33,4.15,2.79,5.46s5.38,2.62,6.41,2.95c-.07.62-.16,1.23-.23,1.85-.35,3-.69,5.91-1.12,8.79-.14,1-.33,2-.51,3,0-.66,0-1.22,0-1.3-.34-2.61-2.53-7.45-5.43-8a3.49,3.49,0,0,0-4,3.28c-.17,2.07,1.34,4.15,2.8,5.46s5,2.49,6.22,2.89c-.21,1-.42,2-.68,3-.19.66-.32,1.31-.55,2s-.42,1.3-.62,1.94c-.45,1.22-.9,2.47-1.36,3.65-.31.82-.63,1.6-.94,2.38.16-1,.43-3,.43-3.16a13.6,13.6,0,0,0-1.81-6.59,4.9,4.9,0,0,0-.05-.77,3.49,3.49,0,0,0-4.27-3c-2.84.76-4.65,5.76-4.78,8.38,0,.16.09,1.85.17,2.92-.14-.62-.27-1.23-.43-1.86-.3-1.26-.63-2.51-1-3.85-.19-.65-.39-1.3-.59-1.95s-.46-1.32-.68-2c-.57-1.54-1.21-3.07-1.9-4.6,1.1-.27,5-1.26,6.57-2.46s3.21-3.16,3.2-5.24a3.5,3.5,0,0,0-3.77-3.57c-2.93.32-5.47,5-6,7.56,0,.16-.21,2.06-.28,3.1-.42-.92-.83-1.84-1.29-2.75-1.31-2.64-2.71-5.26-4.11-7.89l-1.26-2.42c.4-.09,5.06-1.17,6.81-2.52,1.56-1.19,3.21-3.15,3.2-5.23a3.49,3.49,0,0,0-3.77-3.57c-2.93.32-5.47,5-6,7.56,0,.2-.29,2.92-.31,3.61-.93-1.77-1.83-3.55-2.65-5.34a60.69,60.69,0,0,1-2.87-7.43c.18,0,5.05-1.14,6.84-2.52,1.56-1.2,3.22-3.16,3.2-5.23a3.48,3.48,0,0,0-3.76-3.57c-2.93.31-5.47,5-6,7.56,0,.17-.22,2.24-.29,3.23l-.16,0a45.13,45.13,0,0,1-1.5-7.87c-.17-1.46-.24-2.87-.28-4.24.92-.12,5.16-.68,6.91-1.74s3.54-2.78,3.76-4.85a3.48,3.48,0,0,0-3.35-4c-3,0-6,4.35-6.8,6.85-.05.14-.34,1.57-.54,2.62,0-.62,0-1.26,0-1.85,0-2.23.15-4.27.28-6.08.09-1,.19-2,.29-2.81.86-.59,4.26-3,5.31-4.72s1.86-4.09,1.1-6a3.49,3.49,0,0,0-4.8-2c-2.62,1.35-3.31,6.62-2.87,9.22C396.82,302.7,397.81,306.14,397.86,306.11Z" style="fill:#263238"></path></g><g id="Books--inject-207"><polygon points="262.8 390.16 221.59 390.16 191.82 406.23 236.75 406.23 262.8 390.16" style="fill:#fff;stroke:#263238;stroke-linecap:round;stroke-linejoin:round;stroke-width:1.2110298643835282px"></polygon><line x1="221.16" y1="394.05" x2="252.31" y2="394.05" style="fill:none;stroke:#263238;stroke-linecap:round;stroke-linejoin:round;stroke-width:1.2110298643835282px"></line><line x1="216.38" y1="396.55" x2="247.53" y2="396.55" style="fill:none;stroke:#263238;stroke-linecap:round;stroke-linejoin:round;stroke-width:1.2110298643835282px"></line><line x1="211.6" y1="399.05" x2="242.75" y2="399.05" style="fill:none;stroke:#263238;stroke-linecap:round;stroke-linejoin:round;stroke-width:1.2110298643835282px"></line><line x1="206.82" y1="401.56" x2="237.97" y2="401.56" style="fill:none;stroke:#263238;stroke-linecap:round;stroke-linejoin:round;stroke-width:1.2110298643835282px"></line><polygon points="191.82 406.23 191.82 409 237.69 409 236.75 406.23 191.82 406.23" style="fill:#fff;stroke:#263238;stroke-linecap:round;stroke-linejoin:round;stroke-width:1.2110298643835282px"></polygon><polygon points="237.69 409 264 392.53 262.8 390.16 236.75 406.23 237.69 409" style="fill:#fff;stroke:#263238;stroke-linecap:round;stroke-linejoin:round;stroke-width:1.2110298643835282px"></polygon><path d="M192.57,405.42a3.35,3.35,0,0,1-.11-.85,3.2,3.2,0,0,1,5.45-2.26" style="fill:none;stroke:#263238;stroke-linecap:round;stroke-linejoin:round;stroke-width:1.2110298643835282px"></path><path d="M196.75,403.45a3.34,3.34,0,0,1-.11-.84,3.19,3.19,0,0,1,3.19-3.2,3.16,3.16,0,0,1,2.26.94" style="fill:none;stroke:#263238;stroke-linecap:round;stroke-linejoin:round;stroke-width:1.2110298643835282px"></path><path d="M200.6,401.48a3.34,3.34,0,0,1-.11-.84,3.2,3.2,0,0,1,3.19-3.2,3.16,3.16,0,0,1,2.26.94" style="fill:none;stroke:#263238;stroke-linecap:round;stroke-linejoin:round;stroke-width:1.2110298643835282px"></path><path d="M204.29,399.51a2.84,2.84,0,0,1-.12-.84,3.2,3.2,0,0,1,5.46-2.26" style="fill:none;stroke:#263238;stroke-linecap:round;stroke-linejoin:round;stroke-width:1.2110298643835282px"></path><path d="M208.38,397.14a3.34,3.34,0,0,1-.11-.84,3.2,3.2,0,0,1,5.46-2.26" style="fill:none;stroke:#263238;stroke-linecap:round;stroke-linejoin:round;stroke-width:1.2110298643835282px"></path><path d="M212.73,394.68a2.94,2.94,0,0,1-.11-.84,3.19,3.19,0,0,1,5.45-2.26" style="fill:none;stroke:#263238;stroke-linecap:round;stroke-linejoin:round;stroke-width:1.2110298643835282px"></path><path d="M215.11,393.2a3.34,3.34,0,0,1-.11-.84,3.2,3.2,0,0,1,5.46-2.26" style="fill:none;stroke:#263238;stroke-linecap:round;stroke-linejoin:round;stroke-width:1.2110298643835282px"></path><path d="M268.31,399.76s3.14,6.91-2.06,8.9l30.88,19.83s3,1.73,6.83-1.71.64-11-1.08-11.93S268.31,399.76,268.31,399.76Z" style="fill:#fff;stroke:#263238;stroke-linecap:round;stroke-linejoin:round;stroke-width:1.2110298643835282px"></path><path d="M307,384l-40,15.34,32,17.33a13.55,13.55,0,0,1,4.08,4.44,8.59,8.59,0,0,1,.44,1.38,4.62,4.62,0,0,1-6.89,4.93l-30.41-18.8s-2.82,0,.4,2.42c2.69,2,23.31,14.56,29.88,18.47a5.08,5.08,0,0,0,4.44.39l43.59-17.65a5.52,5.52,0,0,0,2.42-3.73,6.93,6.93,0,0,0-4-7.46Z" style="fill:#263238;stroke:#263238;stroke-linecap:round;stroke-linejoin:round;stroke-width:1.2110298643835282px"></path></g><g id="Bookshelf--inject-207"><g style="clip-path:url(#clip-path--inject-207)"><polygon points="86 189.16 80.08 172.25 86 179.44 81.35 154.09 88.53 172.25 91.07 136.76 95.29 170.56 99.94 163.81 99.94 172.25 105.43 160.85 102.47 180.71 107.55 177.33 99.52 188.31 86 189.16" style="fill:#64398B"></polygon><polygon points="104.59 184.93 82.61 184.93 86.57 229.3 100.63 229.3 104.59 184.93" style="fill:#263238;stroke:#263238;stroke-linecap:round;stroke-linejoin:round;stroke-width:1.2110298643835282px"></polygon><rect x="70.94" y="228.79" width="74.85" height="158.54" style="fill:#fff;stroke:#263238;stroke-linecap:round;stroke-linejoin:round;stroke-width:1.2110298643835282px"></rect><rect x="108.37" y="228.79" width="41.53" height="158.54" style="fill:#fff;stroke:#263238;stroke-linecap:round;stroke-linejoin:round;stroke-width:1.2110298643835282px"></rect><rect x="108.37" y="228.79" width="36.85" height="158.54" style="fill:#263238;stroke:#263238;stroke-linecap:round;stroke-linejoin:round;stroke-width:1.2110298643835282px"></rect><rect x="108.37" y="350.48" width="32.71" height="32.47" style="fill:#64398B;stroke:#263238;stroke-linecap:round;stroke-linejoin:round;stroke-width:1.2110298643835282px"></rect><rect x="108.37" y="352.23" width="32.71" height="4.16" style="fill:#fff;stroke:#263238;stroke-linecap:round;stroke-linejoin:round;stroke-width:1.2110298643835282px"></rect><rect x="108.37" y="376.13" width="32.71" height="4.16" style="fill:#fff;stroke:#263238;stroke-linecap:round;stroke-linejoin:round;stroke-width:1.2110298643835282px"></rect><line x1="114.57" y1="351.15" x2="114.57" y2="392.2" style="fill:none;stroke:#263238;stroke-linecap:round;stroke-linejoin:round;stroke-width:1.2110298643835282px"></line><line x1="125.98" y1="351.15" x2="125.98" y2="392.2" style="fill:none;stroke:#263238;stroke-linecap:round;stroke-linejoin:round;stroke-width:1.2110298643835282px"></line><line x1="136" y1="351.15" x2="136" y2="392.2" style="fill:none;stroke:#263238;stroke-linecap:round;stroke-linejoin:round;stroke-width:1.2110298643835282px"></line><rect x="108.37" y="234.68" width="32.71" height="47.74" style="fill:#64398B;stroke:#263238;stroke-linecap:round;stroke-linejoin:round;stroke-width:1.2110298643835282px"></rect><rect x="108.37" y="236.68" width="32.71" height="4.73" style="fill:#fff;stroke:#263238;stroke-linecap:round;stroke-linejoin:round;stroke-width:1.2110298643835282px"></rect><rect x="108.37" y="267.28" width="32.71" height="4.73" style="fill:#fff;stroke:#263238;stroke-linecap:round;stroke-linejoin:round;stroke-width:1.2110298643835282px"></rect><line x1="114.57" y1="235.44" x2="114.57" y2="282.09" style="fill:none;stroke:#263238;stroke-linecap:round;stroke-linejoin:round;stroke-width:1.2110298643835282px"></line><line x1="125.98" y1="235.44" x2="125.98" y2="282.09" style="fill:none;stroke:#263238;stroke-linecap:round;stroke-linejoin:round;stroke-width:1.2110298643835282px"></line><line x1="136" y1="235.44" x2="136" y2="282.09" style="fill:none;stroke:#263238;stroke-linecap:round;stroke-linejoin:round;stroke-width:1.2110298643835282px"></line><rect x="108.37" y="292.22" width="32.71" height="47.74" style="fill:#64398B;stroke:#263238;stroke-linecap:round;stroke-linejoin:round;stroke-width:1.2110298643835282px"></rect><rect x="108.37" y="294.21" width="32.71" height="4.73" style="fill:#fff;stroke:#263238;stroke-linecap:round;stroke-linejoin:round;stroke-width:1.2110298643835282px"></rect><rect x="108.37" y="324.82" width="32.71" height="4.73" style="fill:#fff;stroke:#263238;stroke-linecap:round;stroke-linejoin:round;stroke-width:1.2110298643835282px"></rect><line x1="114.57" y1="292.98" x2="114.57" y2="339.63" style="fill:none;stroke:#263238;stroke-linecap:round;stroke-linejoin:round;stroke-width:1.2110298643835282px"></line><line x1="125.98" y1="292.98" x2="125.98" y2="339.63" style="fill:none;stroke:#263238;stroke-linecap:round;stroke-linejoin:round;stroke-width:1.2110298643835282px"></line><line x1="136" y1="292.98" x2="136" y2="339.63" style="fill:none;stroke:#263238;stroke-linecap:round;stroke-linejoin:round;stroke-width:1.2110298643835282px"></line><rect x="108.37" y="281.76" width="37.43" height="5.43" style="fill:#fff;stroke:#263238;stroke-linecap:round;stroke-linejoin:round;stroke-width:1.2110298643835282px"></rect><rect x="108.37" y="339.66" width="37.43" height="5.43" style="fill:#fff;stroke:#263238;stroke-linecap:round;stroke-linejoin:round;stroke-width:1.2110298643835282px"></rect><line x1="145.79" y1="228.79" x2="145.79" y2="387.33" style="fill:none;stroke:#263238;stroke-linecap:round;stroke-linejoin:round;stroke-width:1.2110298643835282px"></line><polygon points="103.09 228.79 103.09 387.33 108.37 387.33 108.37 234.68 145.15 234.68 145.15 228.73 103.09 228.79" style="fill:#fff;stroke:#263238;stroke-linecap:round;stroke-linejoin:round;stroke-width:1.2110298643835282px"></polygon><line x1="108.37" y1="234.68" x2="108.37" y2="228.79" style="fill:none;stroke:#263238;stroke-linecap:round;stroke-linejoin:round;stroke-width:1.2110298643835282px"></line></g></g><g id="character-1--inject-207"><g style="clip-path:url(#clip-path-2--inject-207)"><path d="M195.09,321.86H262s3.83.64,2.56,8.29-8.21,56.49-8.21,56.49H173.71l12.59-62.12S186.8,321.22,195.09,321.86Z" style="fill:#fff;stroke:#263238;stroke-linecap:round;stroke-linejoin:round;stroke-width:1.2110298643835282px"></path><path d="M264.51,330.15c-1.28,7.66-8.21,56.49-8.21,56.49h-7c1.71-11.56,8-54.39,9.15-59.36s2.91-5.39,3.39-5.42H262S265.78,322.5,264.51,330.15Z" style="fill:#263238;stroke:#263238;stroke-linecap:round;stroke-linejoin:round;stroke-width:1.2110298643835282px"></path><path d="M183.19,317.18s-3.66-.33-5.66-.33-3.33,1.33-6,1.33a120.34,120.34,0,0,1-14.31-.67c-5-.66-11,2-12,7s-3.52,65.11-3.52,65.11h89.77s-1.87-58.32-3.2-64.65-4.66-7.33-9.33-7.66-8.12.87-17.44.87S183.19,317.18,183.19,317.18Z" style="fill:#64398B;stroke:#263238;stroke-linecap:round;stroke-linejoin:round;stroke-width:1.2110298643835282px"></path><path d="M176,324s2.75,13.2,10.44,16.5" style="fill:none;stroke:#263238;stroke-linecap:round;stroke-linejoin:round;stroke-width:1.2110298643835282px"></path><path d="M168.86,321.82s-3.85,8.25,1.65,20.35" style="fill:none;stroke:#263238;stroke-linecap:round;stroke-linejoin:round;stroke-width:1.2110298643835282px"></path><path d="M214.5,338.87s-8.8,22.54-28.05,33" style="fill:none;stroke:#263238;stroke-linecap:round;stroke-linejoin:round;stroke-width:1.2110298643835282px"></path><path d="M178.2,309.52s.66,9.33,1.66,14.65,6.66,8.66,13,6.66,9-6.32,9.32-9.32.33-14.32.33-14.32S192.51,313.85,178.2,309.52Z" style="fill:#fff;stroke:#263238;stroke-linecap:round;stroke-linejoin:round;stroke-width:1.2110298643835282px"></path><path d="M212.37,256.47s.9-1.2-1.51-4.82-8.14-6-8.14-6l3.62,4.82S196.08,245,191.86,245s-14.77,1.5-14.77,1.5l5.12,1.21s-12.66,3.92-14.17,5.73-8.74,7.84-7.24,7.84,9-1.21,9-1.21-7.54,7.24-7.54,10.25S169,287.83,169,287.83s4.52,8.15,6,4.23-.91-13.27-.61-14.18,17.79-2.41,21.71-2.41,3.32,9.35,4.83,10.86,8.74,4.22,10,4.22,3.32-.91,3.32-2.11a23.12,23.12,0,0,1,1.5-7.54c1.21-3,2.72-5.73,3-9.35s-1.81-11.76-1.81-11.76h2.71S216.89,255.27,212.37,256.47Z" style="fill:#263238;stroke:#263238;stroke-linecap:round;stroke-linejoin:round;stroke-width:1.2110298643835282px"></path><path d="M170.45,285.72s-1.5-5.73-4.22-1.81c-1.75,2.53,2.72,12.67,5.13,13.27S170.45,285.72,170.45,285.72Z" style="fill:#fff;stroke:#263238;stroke-linecap:round;stroke-linejoin:round;stroke-width:1.2110298643835282px"></path><path d="M170.45,274.26s0,22,1.51,27.44,7.54,13.57,16.28,13.57,14.78-4.52,17.19-7.84,3.62-9.95,3.62-9.95,2.71,2.11,6-1.81,3.79-10.9,2.41-11.76c-2.41-1.5-5.12.31-6.33,1.51l-2.41,2.41s-3.92-2.71-3.92-6.33.6-10.25.6-10.25l-2.71,1.81.3-2.41s-.6.6-4.22.6-12.37.6-12.37.6l4.53-6s-8.75,3.92-11.76,5.73S170.45,274.26,170.45,274.26Z" style="fill:#fff;stroke:#263238;stroke-linecap:round;stroke-linejoin:round;stroke-width:1.2110298643835282px"></path><path d="M181.78,287.48c0,1.63-.64,3-1.44,3s-1.44-1.33-1.44-3,.64-3,1.44-3S181.78,285.84,181.78,287.48Z" style="fill:#263238"></path><path d="M195.74,287.88c0,1.63-.64,3-1.44,3s-1.45-1.33-1.45-3,.65-3,1.45-3S195.74,286.25,195.74,287.88Z" style="fill:#263238"></path><path d="M184.21,294.47s0,4.24,5.24,3.23" style="fill:none;stroke:#263238;stroke-linecap:round;stroke-linejoin:round;stroke-width:1.2110298643835282px"></path><path d="M182.59,302.14s4.24,2.63,10.09-.2" style="fill:none;stroke:#263238;stroke-linecap:round;stroke-linejoin:round;stroke-width:1.2110298643835282px"></path><path d="M175.12,281.76a4.66,4.66,0,0,1,5.45-2.22" style="fill:none;stroke:#263238;stroke-linecap:round;stroke-linejoin:round;stroke-width:1.2110298643835282px"></path><path d="M191.47,279.54s4.85-1.42,6.66,1.81" style="fill:none;stroke:#263238;stroke-linecap:round;stroke-linejoin:round;stroke-width:1.2110298643835282px"></path><path d="M145.81,322.61l-13.38,36.85s-8.57,6.22-9.49,7.84c-2.3,4,.7,9.73,3.47,12.71,4.36,4.69,13.23,5.35,18.54,1.88,3.48-2.28,5.53-6.91,6.84-10.72l1.41-32.37" style="fill:#64398B;stroke:#263238;stroke-linecap:round;stroke-linejoin:round;stroke-width:1.2110298643835282px"></path><path d="M126.64,362.7s6.86-5.66,18.17.8" style="fill:none;stroke:#263238;stroke-linecap:round;stroke-linejoin:round;stroke-width:1.2110298643835282px"></path><path d="M132.57,365.46l9.06,2s8.66-3.55,9.45.39-5.12,5.12-6.7,5.12-5.51-.4-7.09,0-3.54,2.36-7.08,2.75c0,0-9.85,3.94-13.79,1.58s-.78-10.63,4.34-13.39S132.57,365.46,132.57,365.46Z" style="fill:#fff;stroke:#263238;stroke-linecap:round;stroke-linejoin:round;stroke-width:1.2110298643835282px"></path><path d="M112.37,368.37s-3.85-2.3-5.08.62-4.75,9.71-2.54,9.11S112.37,368.37,112.37,368.37Z" style="fill:#fff;stroke:#263238;stroke-linecap:round;stroke-linejoin:round;stroke-width:1.2110298643835282px"></path><path d="M118.39,364.28s-6.34-.69-7.08,1.18c-1.38,3.46-3.15,13-.4,13.78s3.55-5.12,5.12-8.66A52.42,52.42,0,0,0,118.39,364.28Z" style="fill:#fff;stroke:#263238;stroke-linecap:round;stroke-linejoin:round;stroke-width:1.2110298643835282px"></path><path d="M121.94,360.34s-4.73-.4-6.3,2.75-2.49,15.78-.92,15.78,1.14,1.25,3.5-3.87c1.16-2.5,2.93-10.72,2.93-10.72Z" style="fill:#fff;stroke:#263238;stroke-linecap:round;stroke-linejoin:round;stroke-width:1.2110298643835282px"></path><path d="M133.7,366.52s-6.27-5.34-7.92-6.26-2.77-1.29-4.61.37-2.21,7.55-3.69,11.24-2.94,7.55-1.1,7.55,3.5-.92,5-2.95,4.24-9.21,4.24-9.21" style="fill:#fff;stroke:#263238;stroke-linecap:round;stroke-linejoin:round;stroke-width:1.2110298643835282px"></path><path d="M124.67,370.94s2.21.93,5.34-1.1" style="fill:#fff;stroke:#263238;stroke-linecap:round;stroke-linejoin:round;stroke-width:1.2110298643835282px"></path><path d="M217.41,317.05s7.54-1.45,11.2,2.22,14.19,31.17,17.85,40.49,7.33,16,6.33,20.65-8.66,6.33-14.32,6.66c-6.39.38-10.66-3.66-10.66-5s-2.33-4.33,2-14.66l-3-22" style="fill:#64398B;stroke:#263238;stroke-linecap:round;stroke-linejoin:round;stroke-width:1.2110298643835282px"></path><path d="M237.08,368.94s-6.33-2.74-7.39-2.74a6.48,6.48,0,0,0-1.48,3.8c0,2.11.21,10.77,1.27,11.2s4.22-1.48,6.34-4.44S238.35,369.58,237.08,368.94Z" style="fill:#fff;stroke:#263238;stroke-linecap:round;stroke-linejoin:round;stroke-width:1.2110298643835282px"></path><path d="M232.44,357.14l-3.59,29.12,1.26,4.65,2.12-4,3.8-29.36a1.8,1.8,0,0,0-1.59-2h0A1.8,1.8,0,0,0,232.44,357.14Z" style="fill:#fff;stroke:#263238;stroke-linecap:round;stroke-linejoin:round;stroke-width:1.2110298643835282px"></path><polygon points="232.23 386.9 228.85 386.26 230.11 390.91 232.23 386.9" style="fill:#fff;stroke:#263238;stroke-linecap:round;stroke-linejoin:round;stroke-width:1.2110298643835282px"></polygon><path d="M234.44,355.55a1.8,1.8,0,0,0-2,1.59l-.47,3.77,3.53.7.53-4.07A1.8,1.8,0,0,0,234.44,355.55Z" style="fill:#fff;stroke:#263238;stroke-linecap:round;stroke-linejoin:round;stroke-width:1.2110298643835282px"></path><path d="M229.69,366.2c-1.06,0-3.17,2.74-4.43,4.22s-.85,4.65.21,7.18,1.47,7.19,2.74,7.4,2.33-1.06,2.33-3.38-.43-7.18-.43-7.18" style="fill:#fff;stroke:#263238;stroke-linecap:round;stroke-linejoin:round;stroke-width:1.2110298643835282px"></path><path d="M243.84,381.2s1.48,4-.21,6.12-7.18,1.27-8.24.42S240,385.42,243.84,381.2Z" style="fill:#fff;stroke:#263238;stroke-linecap:round;stroke-linejoin:round;stroke-width:1.2110298643835282px"></path><path d="M243.21,377.39a4.47,4.47,0,0,1,.84,4.65c-1.05,2.75-4.85,5.07-7.6,5.49s-5.07-1-3.8-1.9S240.25,380.56,243.21,377.39Z" style="fill:#fff;stroke:#263238;stroke-linecap:round;stroke-linejoin:round;stroke-width:1.2110298643835282px"></path><path d="M240.68,372.75s2.53,2.32,2.53,4.64-6.13,7.82-9.08,8.87-4.44,0-3.59-1.9,9.29-11.4,9.29-11.4S239.41,372.32,240.68,372.75Z" style="fill:#fff;stroke:#263238;stroke-linecap:round;stroke-linejoin:round;stroke-width:1.2110298643835282px"></path><path d="M233.49,372.75s-4.64,8-5.28,10.56,1.69,2.53,3.17,1.48,8.45-9.51,9.3-12-.64-5.28-3.38-4.86S233.49,372.75,233.49,372.75Z" style="fill:#fff;stroke:#263238;stroke-linecap:round;stroke-linejoin:round;stroke-width:1.2110298643835282px"></path></g></g><g id="Table--inject-207"><line x1="468" y1="386.45" x2="40.18" y2="386.45" style="fill:none;stroke:#263238;stroke-linecap:round;stroke-linejoin:round;stroke-width:1.2110298643835282px"></line></g><g id="Device--inject-207"><polygon points="195.64 385.77 117.65 385.77 87.88 401.85 169.6 401.85 195.64 385.77" style="fill:#fff;stroke:#263238;stroke-linecap:round;stroke-linejoin:round;stroke-width:1.2110298643835282px"></polygon><line x1="122.75" y1="389.97" x2="180.34" y2="389.97" style="fill:none;stroke:#263238;stroke-linecap:round;stroke-linejoin:round;stroke-width:1.2110298643835282px"></line><line x1="118.55" y1="392.97" x2="176.14" y2="392.97" style="fill:none;stroke:#263238;stroke-linecap:round;stroke-linejoin:round;stroke-width:1.2110298643835282px"></line><line x1="114.35" y1="395.97" x2="171.94" y2="395.97" style="fill:none;stroke:#263238;stroke-linecap:round;stroke-linejoin:round;stroke-width:1.2110298643835282px"></line><line x1="180.64" y1="389.97" x2="164.15" y2="398.07" style="fill:none;stroke:#263238;stroke-linecap:round;stroke-linejoin:round;stroke-width:1.2110298643835282px"></line><line x1="171.64" y1="389.97" x2="155.15" y2="398.07" style="fill:none;stroke:#263238;stroke-linecap:round;stroke-linejoin:round;stroke-width:1.2110298643835282px"></line><polygon points="73.92 345.75 155.65 345.75 169.6 401.85 87.88 401.85 73.92 345.75" style="fill:#263238;stroke:#263238;stroke-linecap:round;stroke-linejoin:round;stroke-width:1.2110298643835282px"></polygon><rect x="87.88" y="401.85" width="81.73" height="3.99" transform="translate(257.48 807.68) rotate(180)" style="fill:#fff;stroke:#263238;stroke-linecap:round;stroke-linejoin:round;stroke-width:1.2110298643835282px"></rect><polygon points="73.02 345.75 154.75 345.75 168.7 401.85 86.97 401.85 73.02 345.75" style="fill:#fff;stroke:#263238;stroke-linecap:round;stroke-linejoin:round;stroke-width:1.2110298643835282px"></polygon><polygon points="169.6 401.85 195.64 385.77 195.64 389.07 169.6 405.83 169.6 401.85" style="fill:#263238;stroke:#263238;stroke-linecap:round;stroke-linejoin:round;stroke-width:1.2110298643835282px"></polygon><path d="M124.41,372.09a4.37,4.37,0,1,1-5.41-3.57A4.59,4.59,0,0,1,124.41,372.09Z" style="fill:none;stroke:#263238;stroke-linecap:round;stroke-linejoin:round;stroke-width:1.2110298643835282px"></path></g></svg>
